<svg xmlns="http://www.w3.org/2000/svg" width="13" height="12" fill="none"><path class="icon-density--1" fill="black" fill-rule="evenodd" d="M7.457.293a1 1 0 0 0-1.414 0l-5 5a1 1 0 0 0 0 1.414l5 5a1 1 0 0 0 1.414-1.414L4.164 7h7.586a1 1 0 1 0 0-2H4.164l3.293-3.293a1 1 0 0 0 0-1.414Z"/><path class="icon-density--2" fill="black" fill-rule="evenodd" d="M7.03.72a.75.75 0 0 0-1.06 0l-5 5a.75.75 0 0 0 0 1.06l5 5a.75.75 0 0 0 1.06-1.06L3.31 7H12a.75.75 0 0 0 0-1.5H3.31l3.72-3.72a.75.75 0 0 0 0-1.06Z"/></svg>