<svg xmlns="http://www.w3.org/2000/svg" width="12" height="12" fill="none"><path class="icon-density--1" fill="black" fill-rule="evenodd" d="M5.293.293a1 1 0 0 1 1.414 0l5 5a1 1 0 0 1 0 1.414l-5 5a1 1 0 0 1-1.414-1.414L8.586 7H1a1 1 0 0 1 0-2h7.586L5.293 1.707a1 1 0 0 1 0-1.414Z" clip-rule="evenodd"/><path class="icon-density--2" fill="black" fill-rule="evenodd" d="M5.72.72a.75.75 0 0 1 1.06 0l5 5a.75.75 0 0 1 0 1.06l-5 5a.75.75 0 0 1-1.06-1.06L9.44 7H.75a.75.75 0 0 1 0-1.5h8.69L5.72 1.78a.75.75 0 0 1 0-1.06Z" clip-rule="evenodd"/></svg>