<svg xmlns="http://www.w3.org/2000/svg" width="12" height="12" fill="none"><path class="icon-density--2" fill="black" fill-rule="evenodd" d="M4.78.22a.75.75 0 0 1 0 1.06L3.56 2.5h2.69A2.75 2.75 0 0 1 9 5.25v6a.75.75 0 0 1-1.5 0v-6C7.5 4.56 6.94 4 6.25 4H3.446l1.359 1.496a.75.75 0 0 1-1.11 1.008l-2.5-2.75A.75.75 0 0 1 1.22 2.72l2.5-2.5a.75.75 0 0 1 1.06 0Z" clip-rule="evenodd"/><path class="icon-density--1" fill="black" fill-rule="evenodd" d="M5.707.293a1 1 0 0 1 0 1.414L4.414 3H7a3 3 0 0 1 3 3v5a1 1 0 1 1-2 0V6a1 1 0 0 0-1-1H4.414l1.293 1.293a1 1 0 0 1-1.414 1.414l-3-3a1 1 0 0 1 0-1.414l3-3a1 1 0 0 1 1.414 0Z" clip-rule="evenodd"/></svg>