<?xml version="1.0" encoding="UTF-8"?>
<svg width="20px" height="20px" viewBox="0 0 20 20" version="1.1" xmlns="http://www.w3.org/2000/svg" xmlns:xlink="http://www.w3.org/1999/xlink">
    <title>iOSAppIconMask@2x</title>
    <defs>
        <path d="M20,13.743641 C20,13.9827819 20,14.2214879 19.9982609,14.4601939 C19.9969565,14.661507 19.9947826,14.8628201 19.9895652,15.0636984 C19.9840258,15.5038253 19.9453659,15.9429109 19.873913,16.3772338 C19.7995652,16.8120353 19.6608696,17.2329232 19.4621739,17.6264185 C19.0594495,18.4170584 18.4166925,19.0598434 17.626087,19.4625853 C17.2327725,19.6610158 16.8120538,19.7996494 16.3778261,19.8739076 C15.9430435,19.9456498 15.503913,19.9843471 15.063913,19.9895648 C14.8627919,19.9947598 14.661621,19.9978035 14.4604348,19.9986956 C14.2213043,20 13.9826087,20 13.743913,20 L6.25608696,20 C6.0173913,20 5.77869565,20 5.53956522,19.9986956 C5.33838054,19.9979491 5.13720961,19.9950503 4.93608696,19.9899996 C4.49582074,19.9843824 4.0566047,19.9455751 3.62217391,19.8739076 C3.18782609,19.7999913 2.76695652,19.6608548 2.37391304,19.4625853 C1.58339153,19.0599323 0.94064881,18.4173138 0.537826087,17.6268533 C0.339191307,17.2331126 0.200416974,16.8119355 0.126086957,16.3772338 C0.0546346434,15.9430569 0.0159746334,15.5041159 0.0104347826,15.0641332 C0.0052173913,14.8628201 0.00260869565,14.661507 0.00173913043,14.4601939 C0,14.2210531 0,13.9827819 0,13.743641 L0,6.25635897 C0,6.01721814 0,5.77807731 0.00173913043,5.53893648 C0.00260869565,5.33805818 0.0052173913,5.13674508 0.0104347826,4.93586678 C0.0159812113,4.49588443 0.0546411778,4.05694392 0.126086957,3.62276621 C0.200434783,3.18796469 0.339130435,2.76707683 0.537826087,2.37314666 C0.940550479,1.58250677 1.58330754,0.939721771 2.37391304,0.536979869 C2.76711626,0.338650277 3.18767623,0.200020649 3.62173913,0.125657637 C4.05652174,0.0543501891 4.49565217,0.0156528545 4.93565217,0.0100004348 C5.13695652,0.00478281664 5.33826087,0.00217400757 5.53913043,0.00130440454 C5.77826087,0 6.0173913,0 6.25565217,0 L13.7434783,0 C13.9826087,0 14.2217391,0 14.4604348,0.00130440454 C14.6616195,0.00205154705 14.8627904,0.00495038958 15.063913,0.0100004348 C15.503913,0.0156528545 15.9430435,0.0543501891 16.3773913,0.125657637 C16.8121739,0.200008696 17.2326087,0.338710379 17.626087,0.536979869 C18.4168896,0.939598923 19.0598199,1.58240497 19.4626087,2.37314666 C19.6610762,2.76676552 19.7997039,3.1877959 19.873913,3.62233141 C19.9453708,4.05665372 19.9840307,4.49573965 19.9895652,4.93586678 C19.9947826,5.13717988 19.9973913,5.33849298 19.9982609,5.53937128 C20,5.77851211 20,6.01721814 20,6.25592417 L20,13.743641 Z" id="path-1"></path>
    </defs>
    <g id="iOSAppIconMask" stroke="none" stroke-width="1" fill="none" fill-rule="evenodd">
        <mask id="mask-2" fill="white">
            <use xlink:href="#path-1"></use>
        </mask>
        <use id="Path" fill="#000000" xlink:href="#path-1"></use>
    </g>
</svg>