<svg width="390" height="844" xmlns="http://www.w3.org/2000/svg"><path d="M100.336 4.683v2.81c0 11.38 9.316 21.515 20.807 21.515h151.563c11.492 0 20.807-10.135 20.807-21.515v-2.81c0-2.586 2.118-4.683 4.73-4.683h43.04c16.526 0 22.776 1.679 28.821 4.836l.453.24c6.193 3.311 11.053 8.171 14.365 14.364l.24.453c3.157 6.046 4.835 12.295 4.835 28.82v746.573c0 16.526-1.678 22.775-4.836 28.82l-.24.454c-3.311 6.193-8.171 11.053-14.364 14.364l-.453.24c-6.045 3.157-12.295 4.836-28.82 4.836H48.71c-16.526 0-22.775-1.679-28.82-4.836l-.454-.24c-6.192-3.311-11.052-8.171-14.364-14.364l-.24-.453C1.715 818.137.04 811.968-.002 795.9V48.714c0-16.526 1.678-22.775 4.835-28.82l.24-.454c3.312-6.193 8.172-11.053 14.364-14.364l.453-.24C25.86 1.718 32.03.042 48.096.001L95.608 0c2.611 0 4.728 2.097 4.728 4.683z" fill="#000" fill-rule="evenodd"/></svg>