<svg xmlns="http://www.w3.org/2000/svg" width="12" height="12" fill="none"><path class="icon-density--2"  fill="black" d="M1.268 7.39a4.328 4.328 0 1 1 6.121-6.122l.433.432A.75.75 0 0 1 6.76 2.761l-.433-.433a2.828 2.828 0 1 0-4 4l.433.433a.75.75 0 0 1-1.06 1.06l-.433-.432ZM9.236 4.175a.75.75 0 0 1 1.06 0l.423.423a4.329 4.329 0 0 1-6.121 6.121l-.423-.422a.75.75 0 1 1 1.06-1.061l.423.422a2.828 2.828 0 1 0 4-4l-.422-.422a.75.75 0 0 1 0-1.06Z" /><path class="icon-density--2" fill="black" d="M5.029 3.968a.75.75 0 1 0-1.06 1.06l3 3a.75.75 0 0 0 1.06-1.06l-3-3Z"/><path class="icon-density--1" fill="black" d="M1.44 7.8a1 1 0 0 0 1.415-1.415l-.056-.055A2.496 2.496 0 1 1 6.33 2.8l.056.055A1 1 0 1 0 7.8 1.44l-.055-.055a4.496 4.496 0 1 0-6.359 6.359l.055.055Z"/><path class="icon-density--1" fill="black" d="M8.241 8.241a1 1 0 0 1-1.414 0l-.063-.063-.005-.005-3-3A1 1 0 0 1 5.173 3.76l.064.063.004.005 3 3a1 1 0 0 1 0 1.414Z"/><path class="icon-density--1"  fill="black" d="M10.56 4.2a1 1 0 1 0-1.415 1.415l.056.055A2.496 2.496 0 1 1 5.67 9.2l-.056-.055a1 1 0 0 0-1.414 1.415l.055.055a4.496 4.496 0 1 0 6.359-6.359l-.055-.055Z"/></svg>