<svg xmlns="http://www.w3.org/2000/svg" width="12" height="12" fill="none"><path class="icon-density--1" fill="black" d="M1 9.826v-.06A2 2 0 0 1 2.752 7.78l1.81-.226A.5.5 0 0 0 5 7.059V1.847a1 1 0 0 1 .836-.986l4.582-.764A.5.5 0 0 1 11 .59v1.564a1 1 0 0 1-.835.986l-2.748.46A.5.5 0 0 0 7 4.093V8.74a3 3 0 0 1-2.75 2.99l-1.084.09A2 2 0 0 1 1 9.825Z"/><path class="icon-density--2" fill="black" d="m4.25 11.73-1.084.09C2 11.916 1 10.976 1 9.806c0-1.019.766-1.891 1.78-2.004l2.275-.253a.5.5 0 0 0 .445-.497V1.835A1 1 0 0 1 6.321.85l4.09-.744A.5.5 0 0 1 11 .6v1.555a1 1 0 0 1-.835.986l-2.748.46A.5.5 0 0 0 7 4.093V8.74a3 3 0 0 1-2.75 2.99Z" /></svg>