<svg xmlns="http://www.w3.org/2000/svg" width="12" height="12" fill="none"><path class="icon-density--2" fill="black" fill-rule="evenodd" d="M3.75 0A.75.75 0 0 0 3 .75V1a2 2 0 0 0-2 2v6a2 2 0 0 0 2 2h6a2 2 0 0 0 2-2V3a2 2 0 0 0-2-2V.75a.75.75 0 0 0-1.5 0V1h-3V.75A.75.75 0 0 0 3.75 0ZM3 2.5a.5.5 0 0 0-.5.5v1h7V3a.5.5 0 0 0-.5-.5H3Z" clip-rule="evenodd"/><path class="icon-density--1" fill="black" fill-rule="evenodd" d="M3 0a1 1 0 0 0-1 1v.268A2 2 0 0 0 1 3v6a2 2 0 0 0 2 2h6a2 2 0 0 0 2-2V3a2 2 0 0 0-1-1.732V1a1 1 0 1 0-2 0H4a1 1 0 0 0-1-1Zm6 3H3v2h6V3Z" clip-rule="evenodd"/></svg>