<svg xmlns="http://www.w3.org/2000/svg" width="12" height="12" fill="none"><path class="icon-density--2" fill="black" d="M11.694 1a1 1 0 0 1 0 1.414l-1.133 1.134-2.122-2.122L9.573.293a1 1 0 0 1 1.414 0l.707.707ZM9.56 4.548l-6.5 6.5-3.06.94.94-3.062 6.5-6.5 2.12 2.122ZM11.25 10.487H6.5l-1.5 1.5h6.25a.75.75 0 0 0 0-1.5Z"/><path class="icon-density--1" fill="black" d="M11.694 1a1 1 0 0 1 0 1.414l-1.133 1.134-2.122-2.122L9.573.293a1 1 0 0 1 1.414 0l.707.707ZM9.56 4.548l-6.5 6.5-3.06.94.94-3.062 6.5-6.5 2.12 2.122ZM11 10H7l-2 2h6a1 1 0 1 0 0-2Z"/></svg>