<svg xmlns="http://www.w3.org/2000/svg" width="12" height="12" fill="none"><path fill="black" fill-rule="evenodd" d="M0 6.172V3a1 1 0 0 1 1-1h3.172a2 2 0 0 1 1.414.586L8.63 5.63a1.25 1.25 0 0 1 0 1.768L5.4 10.63a1.25 1.25 0 0 1-1.768 0L.586 7.586A2 2 0 0 1 0 6.172ZM4 5a1 1 0 1 1-2 0 1 1 0 0 1 2 0Z" class="icon-density--2" clip-rule="evenodd"/><path fill="black" d="M9.28 2.22a.75.75 0 0 0-1.06 1.06L9.848 4.91a2.25 2.25 0 0 1 0 3.182L8.22 9.72a.75.75 0 1 0 1.06 1.06l1.629-1.628a3.75 3.75 0 0 0 0-5.304L9.28 2.22Z" class="icon-density--2"/><path fill="black" d="M9.457 2.293a1 1 0 0 0-1.414 1.414l1.379 1.379a2 2 0 0 1 0 2.828l-1.38 1.379a1 1 0 0 0 1.415 1.414l1.379-1.379a4 4 0 0 0 0-5.656l-1.379-1.38Z" class="icon-density--1"/><path fill="black" fill-rule="evenodd" d="M0 6.172V3a1 1 0 0 1 1-1h3.172a2 2 0 0 1 1.414.586L8.63 5.63a1.25 1.25 0 0 1 0 1.768L5.4 10.63a1.25 1.25 0 0 1-1.768 0L.586 7.586A2 2 0 0 1 0 6.172ZM4 5a1 1 0 1 1-2 0 1 1 0 0 1 2 0Z" class="icon-density--1" clip-rule="evenodd"/></svg>