<svg xmlns="http://www.w3.org/2000/svg" width="12" height="12" fill="none"><path class="icon-density--2"  fill="black" fill-rule="evenodd" d="M6 12A6 6 0 1 0 6 0a6 6 0 0 0 0 12Zm.25-8.75a.75.75 0 0 0-1.5 0v2.836c0 .464.184.909.513 1.237L6.47 8.53a.75.75 0 0 0 1.06-1.06L6.323 6.263a.25.25 0 0 1-.073-.177V3.25Z" clip-rule="evenodd"/><path class="icon-density--1" fill="black" fill-rule="evenodd" d="M6 12A6 6 0 1 0 6 0a6 6 0 0 0 0 12Zm1-9.5a1 1 0 0 0-2 0V6a2 2 0 0 0 .8 1.6l1.6 1.2a1 1 0 1 0 1.2-1.6L7 6V2.5Z" clip-rule="evenodd"/></svg>