<svg xmlns="http://www.w3.org/2000/svg" viewbox="0 0 400 300" fill="none"><path fill="currentcolor" d="M53.238 140.5v-21.301h-7.385v-5.473h21.561v5.473h-7.366V140.5h-6.81Zm15.883 0v-20.206h6.587V140.5h-6.587Zm3.284-22.377c-.94 0-1.738-.322-2.393-.965-.644-.643-.965-1.404-.965-2.282 0-.891.322-1.651.965-2.282.655-.643 1.453-.965 2.393-.965.953 0 1.75.322 2.394.965.643.631.965 1.391.965 2.282 0 .878-.322 1.639-.965 2.282s-1.441.965-2.394.965Zm15.308 22.804c-2.437 0-4.237-.483-5.4-1.448-1.15-.977-1.725-2.603-1.725-4.879v-9.482h-2.746v-4.824h2.746v-4.657h6.605v4.657h3.618v4.824h-3.618v8.591c0 .866.198 1.484.594 1.855.396.359.99.539 1.781.539.273 0 .501-.007.687-.019l.556-.074v4.676c-.358.061-.791.117-1.298.167-.508.049-1.107.074-1.8.074Zm5.919-.427v-26.774h6.587V140.5h-6.587Zm19.519.427c-2.127 0-3.958-.421-5.492-1.262-1.534-.853-2.715-2.066-3.544-3.637-.816-1.571-1.224-3.445-1.224-5.622v-.018c0-2.165.408-4.033 1.224-5.604.829-1.571 1.992-2.783 3.489-3.637 1.509-.853 3.284-1.28 5.325-1.28 2.041 0 3.81.421 5.306 1.262a8.583 8.583 0 0 1 3.47 3.525c.816 1.509 1.225 3.284 1.225 5.325v1.93h-16.811v-3.896h13.731l-3.062 3.655v-2.542c0-.977-.155-1.806-.464-2.486-.309-.693-.742-1.213-1.299-1.559-.556-.359-1.206-.538-1.948-.538s-1.398.179-1.967.538c-.556.359-.989.884-1.298 1.577-.31.681-.464 1.503-.464 2.468v2.561c0 .952.154 1.768.464 2.449.321.68.773 1.206 1.354 1.577.594.359 1.299.538 2.115.538.705 0 1.305-.111 1.8-.334.495-.223.884-.495 1.169-.816.297-.322.495-.625.594-.91l.018-.074h5.938l-.056.223c-.148.705-.433 1.441-.853 2.208-.421.754-1.009 1.466-1.763 2.134-.742.668-1.689 1.212-2.839 1.632-1.138.409-2.517.613-4.138.613Zm32.638-.427v-4.564H132.56v-5.548a296.388 296.388 0 0 1 2.022-3.322 502.397 502.397 0 0 0 2.06-3.339l2.041-3.34c.68-1.114 1.36-2.221 2.041-3.322.68-1.113 1.354-2.226 2.022-3.339h9.5v16.903h3.396v5.307h-3.396v4.564h-6.457Zm-7.533-9.63h7.719v-12.45h-.149l-1.521 2.449c-.495.817-.996 1.633-1.503 2.449-.495.817-1.002 1.639-1.522 2.468l-1.521 2.449a269.23 269.23 0 0 1-1.503 2.45v.185ZM185.384 140.5v-21.267h-7.554v-2.689h18.096v2.689h-7.554V140.5h-2.988Zm12.6 0v-17.266h2.889V140.5h-2.889Zm1.445-20.188c-.498 0-.924-.177-1.279-.531a1.742 1.742 0 0 1-.531-1.278c0-.509.177-.935.531-1.278a1.743 1.743 0 0 1 1.279-.532c.509 0 .935.177 1.278.532.354.343.531.769.531 1.278 0 .498-.177.924-.531 1.278a1.708 1.708 0 0 1-1.278.531Zm10.99 20.52c-1.583 0-2.767-.376-3.553-1.129-.786-.752-1.178-1.953-1.178-3.602v-10.476h-2.524v-2.391h2.524v-4.665h2.988v4.665h3.287v2.391h-3.287v10.459c0 .919.199 1.544.597 1.876.399.321.985.481 1.76.481.177 0 .343-.005.498-.016.166-.022.31-.039.432-.05v2.341c-.177.022-.41.044-.697.066a7.15 7.15 0 0 1-.847.05Zm4.798-.332v-23.956h2.888V140.5h-2.888Zm13.895.332c-1.649 0-3.071-.365-4.266-1.096-1.185-.73-2.098-1.759-2.74-3.088-.63-1.339-.946-2.91-.946-4.714v-.017c0-1.782.321-3.348.963-4.698.642-1.362 1.544-2.419 2.706-3.171 1.162-.764 2.529-1.146 4.101-1.146 1.571 0 2.922.366 4.05 1.096 1.14.719 2.015 1.732 2.624 3.038.608 1.306.913 2.822.913 4.549v1.062h-13.913v-2.257h12.485l-1.461 2.091v-1.112c0-1.339-.205-2.446-.614-3.32-.399-.875-.952-1.522-1.66-1.943-.709-.431-1.522-.647-2.441-.647-.919 0-1.743.227-2.474.681-.73.442-1.306 1.106-1.726 1.992-.421.874-.631 1.953-.631 3.237v1.112c0 1.218.205 2.258.614 3.122.421.863 1.013 1.527 1.777 1.992.763.454 1.665.68 2.706.68.73 0 1.383-.11 1.959-.332a4.068 4.068 0 0 0 1.444-.913c.387-.387.664-.83.83-1.328l.05-.149h2.839l-.033.166a5.627 5.627 0 0 1-.83 1.992 6.38 6.38 0 0 1-1.544 1.643 7.606 7.606 0 0 1-2.159 1.096 8.67 8.67 0 0 1-2.623.382Zm25.716.066c-1.837 0-3.414-.503-4.731-1.51-1.306-1.007-2.308-2.435-3.005-4.284-.697-1.848-1.046-4.039-1.046-6.574v-.033c0-2.534.349-4.726 1.046-6.574.697-1.848 1.699-3.271 3.005-4.267 1.317-1.007 2.894-1.51 4.731-1.51 1.837 0 3.415.503 4.732 1.51 1.317.996 2.324 2.419 3.021 4.267.708 1.848 1.063 4.04 1.063 6.574v.033c0 2.535-.355 4.726-1.063 6.574-.697 1.849-1.704 3.277-3.021 4.284-1.317 1.007-2.895 1.51-4.732 1.51Zm0-2.606c1.218 0 2.258-.393 3.121-1.179.875-.797 1.539-1.925 1.992-3.386.465-1.461.698-3.193.698-5.197v-.033c0-2.003-.233-3.73-.698-5.18-.453-1.461-1.117-2.584-1.992-3.37-.863-.786-1.903-1.178-3.121-1.178-1.217 0-2.258.392-3.121 1.178-.863.786-1.522 1.909-1.976 3.37-.453 1.45-.68 3.177-.68 5.18v.033c0 2.004.227 3.736.68 5.197.454 1.461 1.113 2.589 1.976 3.386.863.786 1.904 1.179 3.121 1.179ZM292.904 140.5v-17.514h-6.22v-2.215h14.902v2.215h-6.221V140.5h-2.461Zm10.377 0v-14.219h2.379V140.5h-2.379Zm1.19-16.625c-.41 0-.761-.146-1.053-.437a1.436 1.436 0 0 1-.438-1.053c0-.42.146-.77.438-1.053a1.435 1.435 0 0 1 1.053-.437c.419 0 .77.145 1.052.437.292.283.438.633.438 1.053 0 .41-.146.761-.438 1.053a1.406 1.406 0 0 1-1.052.437Zm9.05 16.898c-1.303 0-2.278-.309-2.925-.929-.647-.62-.971-1.609-.971-2.967v-8.627h-2.078v-1.969h2.078v-3.842h2.461v3.842h2.707v1.969h-2.707v8.613c0 .757.164 1.272.492 1.545.328.265.811.397 1.449.397.146 0 .283-.005.411-.014.136-.018.255-.032.355-.041v1.928a12.82 12.82 0 0 1-.574.054 5.727 5.727 0 0 1-.698.041Zm3.952-.273v-19.729h2.379V140.5h-2.379Zm11.443.273c-1.358 0-2.529-.3-3.514-.902-.975-.601-1.727-1.449-2.256-2.543-.519-1.103-.779-2.397-.779-3.883v-.013c0-1.468.265-2.758.793-3.87.529-1.121 1.272-1.991 2.229-2.611.957-.629 2.082-.943 3.377-.943 1.294 0 2.406.301 3.336.902.938.593 1.658 1.427 2.16 2.502.501 1.076.752 2.324.752 3.746v.875h-11.457v-1.859h10.281l-1.203 1.722v-.916c0-1.102-.169-2.014-.506-2.734-.328-.72-.784-1.253-1.367-1.6-.584-.355-1.254-.533-2.01-.533-.757 0-1.436.187-2.037.561-.602.364-1.076.911-1.422 1.64-.346.721-.52 1.609-.52 2.666v.916c0 1.003.169 1.86.506 2.571.347.711.834 1.258 1.463 1.64.629.374 1.372.561 2.229.561.601 0 1.139-.091 1.613-.273a3.37 3.37 0 0 0 1.189-.752c.319-.319.547-.684.684-1.094l.041-.123h2.338l-.027.136a4.63 4.63 0 0 1-.684 1.641 5.249 5.249 0 0 1-1.271 1.354 6.304 6.304 0 0 1-1.778.902 7.138 7.138 0 0 1-2.16.314Zm19.332-.273v-17.117h-.055l-5.222 3.637v-2.475l5.25-3.774h2.406V140.5h-2.379ZM50.704 190.5v-13.761h-4.941v-1.74h11.805v1.74h-4.93V190.5h-1.934Zm8.798 0v-11.365h1.87V190.5h-1.87Zm.934-13.417a1.207 1.207 0 0 1-1.224-1.225 1.207 1.207 0 0 1 1.225-1.224c.343 0 .633.118.87.354.243.237.365.527.365.87 0 .337-.122.627-.365.871a1.184 1.184 0 0 1-.87.354Zm7.8 13.567c-1.096 0-1.906-.24-2.428-.719-.523-.487-.785-1.271-.785-2.353v-6.896h-1.718v-1.547h1.718v-3.008h1.934v3.008h2.32v1.547h-2.32v6.671c0 .63.129 1.074.387 1.332.258.25.662.376 1.214.376.136 0 .257-.004.365-.011a4.9 4.9 0 0 1 .354-.032v1.546a6.5 6.5 0 0 1-.494.054 4.49 4.49 0 0 1-.548.032Zm3.533-.15v-15.823h1.87V190.5h-1.87Zm9.561.215c-1.088 0-2.023-.24-2.804-.72-.773-.48-1.371-1.156-1.794-2.03-.415-.881-.623-1.916-.623-3.105v-.01c0-1.175.208-2.206.623-3.094.423-.888 1.017-1.579 1.784-2.073.766-.502 1.665-.752 2.696-.752 1.031 0 1.92.24 2.664.719.745.473 1.314 1.139 1.708 1.998.401.853.602 1.848.602 2.987v.698h-9.131v-1.472h8.196l-.935 1.354v-.72c0-.888-.132-1.618-.397-2.191-.265-.58-.634-1.01-1.106-1.289-.466-.287-1.003-.43-1.612-.43-.609 0-1.153.15-1.633.451-.48.294-.859.731-1.138 1.311-.28.58-.42 1.296-.42 2.148v.72c0 .809.137 1.5.409 2.073a3.046 3.046 0 0 0 1.16 1.311c.509.3 1.107.451 1.794.451.494 0 .931-.072 1.31-.215.38-.143.695-.333.946-.569.25-.237.43-.495.537-.774l.032-.096h1.848l-.022.096a3.55 3.55 0 0 1-.526 1.225c-.258.387-.59.73-.999 1.031a4.72 4.72 0 0 1-1.407.709 5.685 5.685 0 0 1-1.762.258Zm12.547-.215v-1.332l5.35-5.683c.687-.723 1.213-1.321 1.579-1.794.372-.472.63-.898.773-1.278.143-.379.215-.791.215-1.235v-.022c0-.537-.122-1.013-.365-1.428a2.583 2.583 0 0 0-1.01-.989c-.437-.243-.945-.365-1.525-.365-.638 0-1.2.133-1.687.397-.487.258-.87.616-1.15 1.075-.272.451-.408.966-.408 1.547l-.01.043-1.859-.011-.01-.032c.007-.91.236-1.719.687-2.428a4.673 4.673 0 0 1 1.848-1.665c.78-.408 1.658-.612 2.631-.612.917 0 1.737.189 2.46.569a4.38 4.38 0 0 1 1.719 1.547c.423.651.634 1.389.634 2.213v.021c0 .573-.104 1.128-.311 1.665-.208.537-.573 1.139-1.096 1.805-.516.659-1.246 1.475-2.192 2.449l-4.135 4.254.526-1.053v1.053l-.526-.44h7.992v1.729h-10.13ZM131.332 190.5v-12.51h-4.512v-1.582h10.791v1.582h-4.521v12.51h-1.758Zm8.34 0v-10.439h1.699V190.5h-1.699Zm.859-12.393a1.11 1.11 0 0 1-.81-.341 1.108 1.108 0 0 1-.342-.811c0-.319.114-.589.342-.81.228-.222.498-.333.81-.333.319 0 .589.111.811.333.221.221.332.491.332.81 0 .313-.111.583-.332.811a1.091 1.091 0 0 1-.811.341Zm7.471 12.5c-1.048 0-1.813-.218-2.295-.654-.475-.443-.713-1.159-.713-2.148v-6.338h-1.621v-1.406h1.621v-2.725h1.758v2.725h2.217v1.406h-2.217v6.006c0 .599.117 1.025.352 1.279.234.247.615.371 1.142.371.137 0 .257-.003.361-.01.105-.006.225-.016.362-.029v1.436c-.15.019-.306.039-.469.058-.163.02-.329.029-.498.029Zm3.428-.107v-14.561h1.699V190.5h-1.699Zm9.004.186c-.996 0-1.853-.219-2.569-.655-.716-.442-1.266-1.064-1.65-1.865-.384-.807-.576-1.758-.576-2.852v-.009c0-1.075.192-2.019.576-2.832.384-.814.928-1.449 1.631-1.905.709-.462 1.536-.693 2.48-.693s1.758.221 2.442.664c.683.436 1.207 1.048 1.572 1.836.364.781.547 1.693.547 2.734v.655h-8.379v-1.358h7.519l-.839 1.24v-.664c0-.82-.124-1.494-.372-2.021-.247-.527-.586-.921-1.015-1.182-.43-.26-.925-.39-1.485-.39-.559 0-1.061.136-1.504.41-.442.273-.794.677-1.054 1.211-.254.534-.381 1.191-.381 1.972v.664c0 .743.124 1.377.371 1.905a2.8 2.8 0 0 0 1.074 1.201c.469.28 1.019.42 1.651.42.462 0 .866-.065 1.211-.195.351-.131.641-.297.869-.498.228-.209.387-.427.478-.655l.039-.088h1.69l-.02.078c-.084.372-.244.73-.478 1.075a4.02 4.02 0 0 1-.899.918 4.266 4.266 0 0 1-1.289.644 5.433 5.433 0 0 1-1.64.235Zm16.933.048c-.97 0-1.816-.166-2.539-.498-.723-.332-1.295-.787-1.719-1.367a3.918 3.918 0 0 1-.722-1.982l-.01-.117h1.689l.01.097c.052.462.218.869.498 1.221.287.351.668.628 1.143.83.475.195 1.025.293 1.65.293.619 0 1.159-.107 1.621-.322.469-.215.834-.511 1.094-.889.26-.384.391-.824.391-1.318v-.02c0-.866-.29-1.53-.869-1.992-.573-.469-1.355-.703-2.344-.703h-1.768v-1.485h1.69c.56 0 1.054-.104 1.484-.312.43-.215.765-.505 1.006-.869.241-.371.361-.791.361-1.26v-.02c0-.494-.104-.914-.312-1.259a2.003 2.003 0 0 0-.918-.791c-.397-.183-.882-.274-1.455-.274-.554 0-1.049.095-1.485.283a2.494 2.494 0 0 0-1.035.791 2.45 2.45 0 0 0-.469 1.231l-.009.098h-1.69l.01-.098c.078-.768.319-1.439.723-2.012.41-.573.95-1.019 1.621-1.338.677-.319 1.455-.478 2.334-.478.898 0 1.679.156 2.343.469.671.306 1.189.732 1.553 1.279.371.54.557 1.168.557 1.885v.019c0 .58-.127 1.094-.381 1.543a3.278 3.278 0 0 1-1.055 1.123c-.449.3-.967.511-1.553.635v.039c1.029.085 1.859.433 2.491 1.045.638.605.957 1.409.957 2.412v.02a3.63 3.63 0 0 1-.635 2.099c-.423.619-1.003 1.107-1.738 1.465-.736.352-1.576.527-2.52.527ZM205.478 190.5v-11.978h2.141v4.98h5.827v-4.98h2.134V190.5h-2.134v-5.196h-5.827v5.196h-2.141Zm16.734.183c-.902 0-1.677-.191-2.324-.573a3.814 3.814 0 0 1-1.486-1.627c-.349-.703-.523-1.536-.523-2.499v-.008c0-.952.171-1.782.515-2.49a3.882 3.882 0 0 1 1.477-1.644c.636-.393 1.384-.589 2.241-.589.864 0 1.605.191 2.225.573a3.742 3.742 0 0 1 1.444 1.585c.338.681.507 1.478.507 2.391v.68h-7.371v-1.386h6.358l-.98 1.295v-.822c0-.603-.091-1.104-.274-1.502-.182-.399-.437-.697-.763-.897a2.084 2.084 0 0 0-1.121-.298c-.426 0-.805.105-1.137.315-.326.205-.587.509-.78.913-.188.399-.282.888-.282 1.469v.83c0 .559.094 1.038.282 1.436.188.393.454.698.797.914.348.21.761.315 1.236.315.371 0 .689-.053.955-.158.271-.11.49-.24.656-.39a1.53 1.53 0 0 0 .348-.44l.025-.058h1.959l-.016.075a3.012 3.012 0 0 1-.399.896 3.385 3.385 0 0 1-.772.839 3.966 3.966 0 0 1-1.178.622c-.465.155-1.005.233-1.619.233Zm8.616-.034a3.45 3.45 0 0 1-1.536-.332 2.607 2.607 0 0 1-1.062-.938c-.255-.409-.382-.891-.382-1.444v-.017c0-.536.133-.998.399-1.386.265-.393.655-.7 1.17-.921.515-.222 1.14-.352 1.876-.39l3.353-.208v1.362l-3.063.199c-.581.033-1.009.155-1.286.365-.277.21-.415.504-.415.88v.016c0 .388.146.689.44.905.299.216.678.324 1.137.324.415 0 .786-.083 1.112-.249.327-.166.584-.39.772-.672a1.74 1.74 0 0 0 .282-.972v-2.872c0-.453-.143-.799-.431-1.037-.288-.244-.714-.366-1.278-.366-.471 0-.855.083-1.154.25-.299.16-.501.39-.606.688l-.009.034h-1.95l.008-.075c.066-.509.266-.955.598-1.336.332-.382.772-.678 1.32-.889.547-.21 1.178-.315 1.892-.315.786 0 1.45.122 1.992.365.543.238.955.587 1.237 1.046.282.454.423.999.423 1.635v6.201h-2.042v-1.245h-.141a2.594 2.594 0 0 1-.647.747c-.26.21-.559.371-.897.481a3.54 3.54 0 0 1-1.112.166Zm10.592 0c-.753 0-1.408-.188-1.967-.564-.559-.382-.991-.924-1.295-1.627-.305-.703-.457-1.53-.457-2.482v-.017c0-.962.15-1.792.448-2.49.305-.703.734-1.242 1.287-1.618.559-.382 1.22-.573 1.984-.573.415 0 .802.066 1.162.199.36.127.675.31.946.548.277.238.493.52.648.847h.149v-4.956h2.059V190.5h-2.059v-1.419h-.149a2.816 2.816 0 0 1-.656.846 2.862 2.862 0 0 1-.93.54 3.572 3.572 0 0 1-1.17.182Zm.647-1.743c.471 0 .875-.116 1.212-.348.343-.238.606-.576.789-1.013.188-.443.282-.966.282-1.569v-.017c0-.608-.094-1.131-.282-1.568-.183-.438-.446-.775-.789-1.013-.337-.238-.741-.357-1.212-.357-.464 0-.868.119-1.212.357-.337.232-.597.57-.78 1.013-.182.437-.274.96-.274 1.568v.017c0 .609.092 1.132.274 1.569.183.437.443.775.78 1.013.338.232.742.348 1.212.348Zm7.006 1.594v-12.584h2.067V190.5h-2.067Zm4.69 0v-9.073h2.059v9.073h-2.059Zm1.038-10.592c-.338 0-.628-.119-.872-.357a1.155 1.155 0 0 1-.365-.855c0-.343.122-.631.365-.863.244-.238.534-.357.872-.357.337 0 .625.119.863.357.244.232.365.52.365.863 0 .332-.121.617-.365.855a1.176 1.176 0 0 1-.863.357Zm3.569 10.592v-9.073h2.067v1.395h.141a2.53 2.53 0 0 1 .98-1.154c.437-.277.982-.415 1.635-.415 1.013 0 1.787.293 2.324.88.537.586.805 1.419.805 2.498v5.869h-2.067v-5.387c0-.709-.149-1.24-.448-1.594-.293-.354-.752-.531-1.378-.531-.409 0-.763.091-1.062.274a1.79 1.79 0 0 0-.689.772c-.161.332-.241.725-.241 1.178v5.288h-2.067Zm14.277.183c-.902 0-1.676-.191-2.324-.573a3.82 3.82 0 0 1-1.486-1.627c-.348-.703-.523-1.536-.523-2.499v-.008c0-.952.172-1.782.515-2.49.349-.708.841-1.256 1.478-1.644.636-.393 1.383-.589 2.241-.589.863 0 1.605.191 2.224.573a3.744 3.744 0 0 1 1.445 1.585c.337.681.506 1.478.506 2.391v.68h-7.371v-1.386h6.358l-.979 1.295v-.822c0-.603-.091-1.104-.274-1.502-.183-.399-.437-.697-.764-.897a2.08 2.08 0 0 0-1.12-.298c-.426 0-.805.105-1.137.315-.327.205-.587.509-.781.913-.188.399-.282.888-.282 1.469v.83c0 .559.094 1.038.282 1.436.188.393.454.698.797.914.349.21.761.315 1.237.315.371 0 .689-.053.955-.158.271-.11.489-.24.655-.39.166-.155.283-.301.349-.44l.025-.058h1.959l-.017.075a3.033 3.033 0 0 1-.398.896 3.404 3.404 0 0 1-.772.839 3.96 3.96 0 0 1-1.179.622c-.465.155-1.004.233-1.619.233ZM300.274 190.5v-1.32h3.703c.902 0 1.585-.18 2.05-.539.465-.36.697-.883.697-1.569v-.017c0-.459-.108-.844-.324-1.154-.215-.31-.539-.542-.971-.697-.426-.155-.957-.232-1.594-.232h-3.561v-1.287h3.138c.908 0 1.588-.16 2.042-.481.459-.321.689-.797.689-1.428v-.017c0-.608-.207-1.079-.622-1.411-.41-.337-.986-.506-1.727-.506h-3.52v-1.32h3.835c.736 0 1.367.122 1.893.365.531.244.938.59 1.22 1.038.288.443.432.968.432 1.577v.017c0 .415-.094.805-.282 1.17a2.74 2.74 0 0 1-.739.921c-.31.249-.659.41-1.046.482v.133c.548.066 1.021.229 1.419.489.399.26.706.598.922 1.013.221.41.332.877.332 1.403v.016c0 .698-.163 1.298-.49 1.802-.321.498-.783.882-1.386 1.154-.603.265-1.331.398-2.183.398h-3.927Zm-.747 0v-11.978h1.494V190.5h-1.494Zm14.668.158c-.847 0-1.58-.186-2.2-.556-.614-.377-1.09-.911-1.428-1.602-.332-.692-.498-1.514-.498-2.466v-.016c0-.958.166-1.782.498-2.474.338-.692.814-1.223 1.428-1.594.62-.371 1.353-.556 2.2-.556.852 0 1.585.185 2.2.556.614.371 1.087.902 1.419 1.594.338.692.506 1.516.506 2.474v.016c0 .952-.168 1.774-.506 2.466-.332.691-.805 1.225-1.419 1.602-.615.37-1.348.556-2.2.556Zm0-1.279c.564 0 1.043-.132 1.436-.398s.692-.648.896-1.146c.211-.498.316-1.098.316-1.801v-.016c0-.709-.105-1.312-.316-1.81-.204-.498-.503-.877-.896-1.137-.393-.266-.872-.399-1.436-.399-.565 0-1.043.133-1.436.399-.393.26-.695.639-.905 1.137-.205.498-.307 1.101-.307 1.81v.016c0 .703.102 1.303.307 1.801.21.498.512.88.905 1.146.393.266.871.398 1.436.398Zm9.67 1.279c-.752 0-1.411-.191-1.975-.573-.565-.382-1.002-.919-1.312-1.61-.31-.698-.465-1.511-.465-2.441v-.016c0-.936.155-1.749.465-2.441.31-.692.744-1.228 1.303-1.61.565-.382 1.226-.573 1.984-.573a3.3 3.3 0 0 1 1.154.199c.365.128.689.307.971.54.282.232.504.509.664.83h.133v-4.964h1.444V190.5h-1.444v-1.428h-.133a3.048 3.048 0 0 1-.689.855 3.05 3.05 0 0 1-.946.54 3.395 3.395 0 0 1-1.154.191Zm.332-1.279c.543 0 1.01-.135 1.403-.406.393-.272.695-.656.905-1.154.21-.504.315-1.099.315-1.785v-.016c0-.692-.105-1.287-.315-1.785-.21-.498-.512-.883-.905-1.154-.393-.271-.86-.407-1.403-.407-.542 0-1.01.136-1.403.407-.387.266-.686.648-.896 1.146-.205.498-.307 1.095-.307 1.793v.016c0 .692.102 1.29.307 1.793.21.498.509.883.896 1.154.393.266.861.398 1.403.398Zm7.571 4.259c-.094 0-.2-.006-.316-.017a2.813 2.813 0 0 1-.324-.033v-1.187c.089.016.186.028.291.033.105.006.207.008.307.008.41 0 .744-.105 1.004-.315.266-.21.479-.573.64-1.087l.166-.532-3.312-8.956h1.544l2.755 8.267-.572-.904h.68l-.572.904 2.747-8.267h1.519l-3.494 9.496c-.244.669-.501 1.192-.772 1.569-.272.376-.59.639-.955.788-.36.155-.805.233-1.336.233Z" style="fill:currentcolor;fill-opacity:1"/></svg>