<svg xmlns="http://www.w3.org/2000/svg" fill="none" viewBox="0 0 400 300"><path fill="currentcolor" d="M221.165 185.999v1.343h-5.483l-.806 3.691h.036c.698-.663 1.631-1.039 2.813-1.039l.204.004c2.104.094 3.971 1.64 3.971 4.278 0 2.616-1.864 4.264-4.408 4.264-2.544-.001-4.407-1.542-4.515-3.817h1.487c.197 1.523 1.272 2.491 3.01 2.491 1.756 0 2.885-1.183 2.885-2.974 0-1.73-1.118-2.784-2.587-2.908l-.298-.013c-1.326 0-2.239.538-2.759 1.272h-1.451l1.361-6.592h6.54Z"/><path fill="currentcolor" fill-rule="evenodd" d="M190.791 188.775c2.776 0 4.263 2.15 4.263 5.214h-7.166c.108 1.881 1.129 3.314 2.992 3.314 1.344 0 2.239-.644 2.562-1.898h1.416c-.43 1.988-1.882 3.117-3.978 3.117-2.83 0-4.479-2.186-4.479-4.873 0-2.688 1.756-4.874 4.39-4.874Zm0 1.146c-1.72 0-2.653 1.291-2.868 2.975h5.573c-.09-1.845-1.039-2.975-2.705-2.975Z" clip-rule="evenodd"/><path fill="currentcolor" d="M183.717 189.008h1.792v1.183h-1.792v6.019c0 .645.341.861.932.861.287 0 .609-.072.77-.126h.054v1.255c-.34.071-.734.125-1.164.125-1.182 0-2.043-.484-2.043-1.792v-6.342h-1.344v-1.183h1.344v-2.921h1.451v2.921ZM179.3 198.271h-1.612V185.46h1.612v12.811ZM206.273 188.805c1.486.123 2.51 1.165 2.51 2.962v6.504h-1.451v-6.432c0-1.146-.771-1.828-1.703-1.828-1.2 0-2.275 1.039-2.275 2.49v5.77h-1.452v-6.432c0-1.146-.645-1.828-1.594-1.828-1.129 0-2.383 1.039-2.383 2.49v5.77h-1.452v-9.263h1.452v1.325h.035c.574-.895 1.56-1.54 2.724-1.54 1.129 0 2.025.573 2.419 1.648h.035a3.245 3.245 0 0 1 2.831-1.648l.304.012Z"/><g fill="currentcolor" opacity=".8"><path fill-rule="evenodd" d="M191.047 167.791c2.612.129 4.007 2.239 4.007 5.207h-7.166c.108 1.881 1.129 3.314 2.992 3.314 1.344 0 2.239-.645 2.562-1.898h1.416c-.43 1.988-1.882 3.117-3.978 3.117-2.83 0-4.479-2.186-4.479-4.873 0-2.688 1.756-4.874 4.39-4.874l.256.007Zm-.256 1.139c-1.72 0-2.653 1.291-2.868 2.975h5.573c-.09-1.846-1.039-2.975-2.705-2.975Z" clip-rule="evenodd"/><path d="M183.717 168.017h1.792v1.183h-1.792v6.019c0 .645.341.861.932.861.287 0 .609-.073.77-.126h.054v1.254c-.34.072-.734.125-1.164.125-1.182 0-2.043-.484-2.043-1.791V169.2h-1.344v-1.183h1.344v-2.921h1.451v2.921ZM179.3 177.28h-1.612v-12.811h1.612v12.811ZM206.273 167.814c1.486.123 2.51 1.165 2.51 2.962v6.504h-1.451v-6.432c0-1.146-.771-1.828-1.703-1.828-1.2 0-2.275 1.039-2.275 2.49v5.77h-1.452v-6.432c0-1.146-.645-1.828-1.594-1.828-1.129 0-2.383 1.039-2.383 2.49v5.77h-1.452v-9.263h1.452v1.325h.035c.574-.895 1.56-1.54 2.724-1.54 1.129 0 2.025.573 2.419 1.648h.035a3.243 3.243 0 0 1 2.831-1.648l.304.012Z"/><path fill-rule="evenodd" d="M220.287 173.07h2.025v1.2h-2.025v3.01h-1.469v-3.01h-5.787v-1.344l6.074-8.045h1.182v8.189Zm-5.805-.055v.055h4.336v-5.752h-.036l-4.3 5.697Z" clip-rule="evenodd"/></g><g fill="currentcolor" opacity=".6"><path d="M217.654 143.711c2.275.001 4.085 1.237 4.085 3.369 0 1.379-.843 2.186-2.026 2.58v.053c1.72.448 2.473 1.542 2.473 3.136 0 2.347-1.917 3.691-4.407 3.691-2.706 0-4.838-1.523-4.892-4.318h1.488c.053 1.971 1.326 3.064 3.35 3.064 1.702 0 2.902-.843 2.902-2.58 0-1.462-1.023-2.277-2.849-2.373l-.375-.01h-.771v-1.165h.752c1.917 0 2.885-.807 2.885-2.115 0-1.343-1.201-2.149-2.67-2.149-1.773 0-2.83 1.147-2.83 2.849h-1.47c.018-2.419 1.649-4.032 4.355-4.032Z"/><path fill-rule="evenodd" d="M190.791 146.775c2.776 0 4.263 2.15 4.263 5.214h-7.166c.108 1.881 1.129 3.314 2.992 3.314 1.344 0 2.239-.644 2.562-1.898h1.416c-.43 1.988-1.882 3.117-3.978 3.117-2.83 0-4.479-2.186-4.479-4.873 0-2.688 1.756-4.874 4.39-4.874Zm0 1.146c-1.72 0-2.653 1.291-2.868 2.975h5.573c-.09-1.845-1.039-2.975-2.705-2.975Z" clip-rule="evenodd"/><path d="M183.717 147.008h1.792v1.183h-1.792v6.019c0 .645.341.861.932.861.287 0 .609-.072.77-.126h.054v1.255c-.34.071-.734.125-1.164.125-1.182 0-2.043-.484-2.043-1.792v-6.342h-1.344v-1.183h1.344v-2.921h1.451v2.921ZM179.3 156.271h-1.612V143.46h1.612v12.811ZM206.273 146.805c1.486.123 2.51 1.165 2.51 2.962v6.504h-1.451v-6.432c0-1.146-.771-1.828-1.703-1.828-1.2 0-2.275 1.039-2.275 2.49v5.77h-1.452v-6.432c0-1.146-.645-1.828-1.594-1.828-1.129 0-2.383 1.039-2.383 2.49v5.77h-1.452v-9.263h1.452v1.325h.035c.574-.895 1.56-1.54 2.724-1.54 1.129 0 2.025.573 2.419 1.648h.035a3.245 3.245 0 0 1 2.831-1.648l.304.012Z"/></g><g fill="currentcolor" opacity=".4"><path fill-rule="evenodd" d="M191.047 125.791c2.612.129 4.007 2.239 4.007 5.207h-7.166c.108 1.881 1.129 3.314 2.992 3.314 1.344 0 2.239-.645 2.562-1.898h1.416c-.43 1.988-1.882 3.117-3.978 3.117-2.83 0-4.479-2.186-4.479-4.873 0-2.688 1.756-4.874 4.39-4.874l.256.007Zm-.256 1.139c-1.72 0-2.653 1.291-2.868 2.975h5.573c-.09-1.846-1.039-2.975-2.705-2.975Z" clip-rule="evenodd"/><path d="M183.717 126.017h1.792v1.183h-1.792v6.019c0 .645.341.861.932.861.287 0 .609-.073.77-.126h.054v1.254c-.34.072-.734.125-1.164.125-1.182 0-2.043-.484-2.043-1.791V127.2h-1.344v-1.183h1.344v-2.921h1.451v2.921ZM179.3 135.28h-1.612v-12.811h1.612v12.811ZM206.273 125.814c1.486.123 2.51 1.165 2.51 2.962v6.504h-1.451v-6.432c0-1.146-.771-1.828-1.703-1.828-1.2 0-2.275 1.039-2.275 2.49v5.77h-1.452v-6.432c0-1.146-.645-1.828-1.594-1.828-1.129 0-2.383 1.039-2.383 2.49v5.77h-1.452v-9.263h1.452v1.325h.035c.574-.895 1.56-1.54 2.724-1.54 1.129 0 2.025.573 2.419 1.648h.035a3.243 3.243 0 0 1 2.831-1.648l.304.012ZM218.009 122.743c2.359.094 3.872 1.64 3.872 3.757 0 2.365-1.612 3.154-3.583 4.247-1.325.734-3.027 1.738-3.368 3.099h6.701v1.434h-8.51c.143-3.279 2.454-4.48 4.604-5.716 1.612-.932 2.598-1.559 2.598-3.046 0-1.505-1.039-2.525-2.669-2.525-.86 0-1.505.286-1.953.769-.484.52-.7 1.201-.7 2.455h-1.576c0-1.576.412-2.58 1.164-3.333.789-.77 1.936-1.146 3.19-1.146l.23.005Z"/></g><g fill="currentcolor" opacity=".2"><path fill-rule="evenodd" d="M191.047 104.791c2.612.129 4.007 2.239 4.007 5.207h-7.166c.108 1.881 1.129 3.314 2.992 3.314 1.344 0 2.239-.645 2.562-1.898h1.416c-.43 1.988-1.882 3.117-3.978 3.117-2.83 0-4.479-2.186-4.479-4.873 0-2.688 1.756-4.874 4.39-4.874l.256.007Zm-.256 1.139c-1.72 0-2.653 1.291-2.868 2.975h5.573c-.09-1.846-1.039-2.975-2.705-2.975Z" clip-rule="evenodd"/><path d="M183.717 105.017h1.792v1.183h-1.792v6.019c0 .645.341.861.932.861.287 0 .609-.073.77-.126h.054v1.254c-.34.072-.734.125-1.164.125-1.182 0-2.043-.484-2.043-1.791V106.2h-1.344v-1.183h1.344v-2.921h1.451v2.921ZM179.3 114.28h-1.612v-12.811h1.612v12.811ZM206.273 104.814c1.486.123 2.51 1.165 2.51 2.962v6.504h-1.451v-6.432c0-1.146-.771-1.828-1.703-1.828-1.2 0-2.275 1.039-2.275 2.49v5.77h-1.452v-6.432c0-1.146-.645-1.828-1.594-1.828-1.129 0-2.383 1.039-2.383 2.49v5.77h-1.452v-9.263h1.452v1.325h.035c.574-.895 1.56-1.54 2.724-1.54 1.129 0 2.025.573 2.419 1.648h.035a3.243 3.243 0 0 1 2.831-1.648l.304.012ZM217.367 101.935v12.345h-1.505v-8.941h-2.688v-1.003c1.505-.035 2.795-.591 3.028-2.401h1.165Z"/></g></svg>