<svg fill="none" height="16" viewBox="0 0 16 16" width="16" xmlns="http://www.w3.org/2000/svg"><path d="m1 0c-.552285 0-1 .447715-1 1v11c0 2.2091 1.79086 4 4 4h11c.5523 0 1-.4477 1-1v-11c0-2.20914-1.7909-4-4-4z" fill="#fff"/><path d="m3.00001 1h-2.00001v11c0 1.6569 1.34315 3 3 3 .76835 0 1.46924-.2889 2-.7639.53075.475 1.23163.7639 1.99999.7639 1.65524 0 2.99741-1.3405 3.00001-2.9952v-9.00481h.8333c.6443 0 1.1667.52234 1.1667 1.16667v10.83334h2v-10.5c0-1.933-1.567-3.5-3.5-3.5h-2.5v11c0 .5523-.44772 1-1 1-.55229 0-1-.4477-1-1v-11h-1.99999v11c0 .5523-.44771 1-1 1-.55228 0-1-.4477-1-1z" fill="#000"/></svg>