<style>path { fill: #000 !important;  } @media (prefers-color-scheme: dark) { path { fill: #fff !important; }}</style>
<svg height="16" viewBox="0 0 16 16" width="16" xmlns="http://www.w3.org/2000/svg"><path d="m15 3.9913413s0-2.9913413-3-2.9913413h-3v11.007994c0 .5506907-.44771525.9971137-1 .9971137s-1-.446423-1-.9971137v-11.007994h-2v11.007994c0 .5506907-.44771525.9971137-1 .9971137s-1-.446423-1-.9971137v-11.007994h-2v11.007994s0 2.992006 3 2.992006c.73251084 0 1.44826413-.215546 2-.6959854.55713527.4690171 1.27085568.6953207 2 .6953207 3 0 3-2.9913413 3-2.9913413v-9.01376646h1.04c.2602197.00435347.5079345.1120864.6881703.29929014.1802358.18720375.2780841.43839339.2718297.69782362v11.007994h2z" style="fill: #000"/></svg>