<svg class="design--desktop zello-mainmenu-icons" xmlns="http://www.w3.org/2000/svg" width="1260" height="840" fill="none" viewBox="0 0 1260 840"><path fill-rule="evenodd" d="M378 212c24.301 0 44-19.699 44-44s-19.699-44-44-44-44 19.699-44 44 19.699 44 44 44m17.285-32.029c3.472-.157 6.475 3.25 4.252 5.923C394.401 192.069 386.66 196 378 196c-15.464 0-28-12.536-28-28 0-8.66 3.931-16.401 10.106-21.537 2.673-2.223 6.08.78 5.923 4.252Q366 151.354 366 152c0 15.464 12.536 28 28 28q.646 0 1.285-.029M546 212c24.301 0 44-19.699 44-44s-19.699-44-44-44-44 19.699-44 44 19.699 44 44 44m19.413-57.914a4 4 0 1 0-6.826-4.172l-19.161 31.355-10.416-11.903a3.999 3.999 0 1 0-6.02 5.268l14 16a4 4 0 0 0 6.423-.548zM714 212c24.301 0 44-19.699 44-44s-19.699-44-44-44-44 19.699-44 44 19.699 44 44 44m-16-48a4 4 0 0 0 0 8h32a4 4 0 0 0 0-8zM882 212c24.301 0 44-19.699 44-44s-19.699-44-44-44-44 19.699-44 44 19.699 44 44 44m0-64a4 4 0 0 0-4 4v32a4 4 0 0 0 8 0v-32a4 4 0 0 0-4-4M378 368c17.673 0 32-14.327 32-32s-14.327-32-32-32-32 14.327-32 32 14.327 32 32 32m0 12c24.301 0 44-19.699 44-44s-19.699-44-44-44-44 19.699-44 44 19.699 44 44 44" clip-rule="evenodd"/><path d="M590 336c0 4.291-5.095 6.185-9.211 4.974A24 24 0 0 0 574 340c-13.255 0-24 10.745-24 24 0 2.358.34 4.636.974 6.789 1.211 4.116-.683 9.211-4.974 9.211-24.301 0-44-19.699-44-44s19.699-44 44-44 44 19.699 44 44"/><path d="M574 380c8.837 0 16-7.163 16-16s-7.163-16-16-16-16 7.163-16 16 7.163 16 16 16"/><path fill-rule="evenodd" d="M726 292a4 4 0 0 1 4 4v49.238c0 2.495 3.017 3.745 4.781 1.981l8.875-8.875a8 8 0 0 0 2.344-5.656v-9.063c0-2.081 1.919-3.625 4-3.625q1.072 0 2.113-.109c2.868-.303 5.887 1.67 5.887 4.554V364c0 8.837-7.163 16-16 16h-56c-8.837 0-16-7.163-16-16v-56c0-8.837 7.163-16 16-16zm-28 34.762c0-2.495-3.017-3.745-4.781-1.981l-8.875 8.875a8 8 0 0 0-2.344 5.656V360a8 8 0 0 0 8 8h22a2 2 0 0 0 2-2v-12a2 2 0 0 0-2-2h-12a2 2 0 0 1-2-2zM733.312 352a8 8 0 0 0-5.656 2.344l-8.875 8.875c-1.764 1.764-.514 4.781 1.981 4.781H738a8 8 0 0 0 8-8v-6a2 2 0 0 0-2-2zM690 304a8 8 0 0 0-8 8v6a2 2 0 0 0 2 2h39.238c2.495 0 3.745-3.017 1.981-4.781l-8.875-8.875a8 8 0 0 0-5.656-2.344z" clip-rule="evenodd"/><path d="M750 288c6.627 0 12 5.373 12 12s-5.373 12-12 12-12-5.373-12-12 5.373-12 12-12"/><path fill-rule="evenodd" d="M882 380c24.301 0 44-19.699 44-44s-19.699-44-44-44-44 19.699-44 44 19.699 44 44 44m19.05-13.448c6.389-3.992 6.749-13.361-.095-16.511A22.3 22.3 0 0 0 891.6 348h-19.2c-3.339 0-6.508.731-9.355 2.041-6.844 3.15-6.484 12.52-.095 16.512A35.84 35.84 0 0 0 882 372a35.83 35.83 0 0 0 19.05-5.448M882 340c8.837 0 16-7.163 16-16s-7.163-16-16-16-16 7.163-16 16 7.164 16 16 16M350.28 477.547c-1.313-.18-2.64.292-3.474 1.322a39.9 39.9 0 0 0-6.599 11.756c-.427 1.201-.175 2.528.594 3.544l6.371 8.411a4 4 0 0 1 0 4.83l-5.867 7.746c-.802 1.058-1.039 2.45-.546 3.682a40 40 0 0 0 7.74 12.251c.84.911 2.086 1.312 3.314 1.144l8.617-1.183a4 4 0 0 1 4.254 2.468l2.998 7.438c.482 1.196 1.508 2.099 2.775 2.34 2.437.462 4.953.704 7.525.704 2.618 0 5.178-.251 7.656-.729 1.262-.244 2.283-1.146 2.763-2.338l2.988-7.415a4 4 0 0 1 4.254-2.468l8.52 1.169c1.229.169 2.475-.233 3.316-1.145a40 40 0 0 0 7.767-12.341c.489-1.23.25-2.617-.549-3.672l-5.795-7.651a4 4 0 0 1 0-4.83l6.296-8.312c.767-1.013 1.02-2.335.598-3.534a39.9 39.9 0 0 0-6.627-11.851c-.833-1.03-2.161-1.503-3.474-1.323l-10.052 1.38a4 4 0 0 1-4.254-2.468l-3.852-9.56c-.492-1.221-1.552-2.136-2.851-2.355a40.5 40.5 0 0 0-6.704-.557c-2.239 0-4.435.183-6.574.536-1.304.215-2.37 1.131-2.864 2.357l-3.86 9.579a4 4 0 0 1-4.254 2.468zM378 520c8.837 0 16-7.163 16-16s-7.163-16-16-16-16 7.163-16 16 7.163 16 16 16M574 456c8.837 0 16 7.163 16 16v40c0 8.837-7.163 16-16 16h-14.344c-1.06 0-2.078.422-2.828 1.172l-16 16c-2.52 2.519-6.828.735-6.828-2.828V532a4 4 0 0 0-4-4h-12c-8.837 0-16-7.163-16-16v-40c0-8.837 7.163-16 16-16zm-28 54a6 6 0 0 0-6 6 6 6 0 0 0 6 6 6 6 0 0 0 6-6 6 6 0 0 0-6-6m5.348-45.59c-6.985-1.098-15.474.785-20.27 5.91a4.003 4.003 0 0 0 .188 5.653 4.005 4.005 0 0 0 5.656-.188c2.476-2.645 7.987-4.29 13.183-3.473 2.488.392 4.494 1.3 5.817 2.532 1.232 1.147 2.078 2.752 2.078 5.156 0 2.646-.716 3.866-1.41 4.605-.868.924-2.14 1.587-4.18 2.481-1.754.769-4.468 1.847-6.555 3.719-2.394 2.149-3.823 5.133-3.824 9.195a4 4 0 0 0 4 4 4.003 4.003 0 0 0 4-4c.001-1.934.569-2.704 1.168-3.242.908-.814 2.187-1.364 4.422-2.344 1.95-.855 4.675-2.07 6.801-4.332C564.72 487.635 566 484.35 566 480c0-4.594-1.748-8.33-4.629-11.012-2.79-2.597-6.421-4.011-10.023-4.578" clip-rule="evenodd"/><path d="M692 512a6 6 0 1 0 0-12 6 6 0 0 0 0 12"/><path fill-rule="evenodd" d="M666 472c0-8.837 7.163-16 16-16h24c8.837 0 16 7.163 16 16v64a8 8 0 0 1-8 8h-4c-.014 5.123-4.774 8.915-9.773 7.779l-28-6.364a8 8 0 0 1-6.227-7.801zm29.431-4.518-12-2.182c-4.911-.892-9.431 2.88-9.431 7.871v64.443l28 6.364v-68.625a8 8 0 0 0-6.569-7.871" clip-rule="evenodd"/><path d="M744.828 485.172a3.997 3.997 0 0 0-5.656 0 3.997 3.997 0 0 0 0 5.656l9.171 9.172H730a4 4 0 0 0 0 8h18.343l-9.171 9.172a3.997 3.997 0 0 0 0 5.656 3.997 3.997 0 0 0 5.656 0l16-16a3.997 3.997 0 0 0 0-5.656z"/><path fill-rule="evenodd" d="M910 460c8.837 0 16 7.163 16 16v56c0 8.837-7.163 16-16 16h-56c-8.837 0-16-7.163-16-16v-56c0-8.837 7.163-16 16-16zm-50 62.484c-.648 0-1.279.079-1.883.223l-2.39 4.105a3.946 3.946 0 0 0 1.464 5.415c1.913 1.093 4.361.446 5.465-1.45l3.297-5.66a8.01 8.01 0 0 0-5.953-2.633m28.445-29.714c-3.213 3.723-3.885 9.194-1.273 13.679l14.172 24.328c1.104 1.896 3.552 2.547 5.465 1.453a3.95 3.95 0 0 0 1.464-5.418l-3.964-6.804 5.691-.004c2.209 0 4-1.775 4-3.965-.001-2.189-1.792-3.964-4-3.965h-10.309zm.746-15.477c-1.912-1.094-4.36-.446-5.464 1.449L882 481.707l-1.727-2.965c-1.104-1.895-3.552-2.543-5.464-1.449a3.945 3.945 0 0 0-1.465 5.414l4.035 6.93-13.07 22.437H854c-2.208.001-3.999 1.776-4 3.965s1.791 3.969 4 3.969l34.992-.004c.221-.62.348-1.286.348-1.981 0-3.284-2.687-5.948-6-5.949h-9.793l17.109-29.367a3.947 3.947 0 0 0-1.465-5.414M394.12 668.732c1.04-1.206 2.987-1.626 4.114-.5l2.699 2.7c1.226 1.227 1.047 3.316 1.047 5.05a4 4 0 0 0 4 4c1.735 0 3.823-.179 5.051 1.047l12.16 12.164c3.748 3.749 3.749 9.83 0 13.579l-6.422 6.421c-3.749 3.747-9.83 3.748-13.578 0l-12.16-12.164c-1.226-1.226-1.052-3.312-1.051-5.047a4 4 0 0 0-4-4c-1.735.001-3.82.176-5.047-1.05l-.59-.586a3.977 3.977 0 0 1-.199-5.407zm7.274 27.836a2 2 0 0 0-2.828 2.829l8 8c.78.779 2.047.778 2.828 0a2 2 0 0 0 0-2.829zm8-8a2 2 0 0 0-2.828 2.828l8 8.001c.78.779 2.047.778 2.828 0a2 2 0 0 0 0-2.829z" clip-rule="evenodd"/><path d="M381.187 656.424a4 4 0 0 1 5.441.203l2.746 2.746a4 4 0 0 1 .2 5.441l-41.555 48.204c-3.249 3.769-9.016 3.983-12.535.464l-2.965-2.964c-3.519-3.519-3.307-9.286.461-12.536zM368.339 631.818c8.205-7.115 20.759-12.718 31.66-1.816l10.797 10.797a8 8 0 0 1 2.106 7.594l-.903 3.609 2 2h7.172c.531 0 1.039.211 1.414.586l2.086 2.082a4.004 4.004 0 0 1 0 5.66l-8.344 8.34a4 4 0 0 1-5.656 0l-2.086-2.082a2 2 0 0 1-.586-1.418v-7.168l-2-2-5.8 1.449a4 4 0 0 1-3.801-1.051l-8.649-8.652a4 4 0 0 1-.968-4.094l2.437-7.308c.479-1.438.141-3.094-1.168-3.856-5.224-3.04-11.958.079-15.922 2.285-1.265.705-2.839.512-3.863-.511-1.25-1.25-1.261-3.287.074-4.446M339.663 626.299a4 4 0 0 1 5.047-.5l7.504 4.996a4 4 0 0 1 1.785 3.332v3.977c0 1.199.54 2.337 1.469 3.097l13.856 11.332a4.002 4.002 0 0 1 .078 6.125l-1.239 1.067a4 4 0 0 1-5.707-.496l-11.254-13.762a4 4 0 0 0-3.097-1.465h-3.985a4 4 0 0 1-3.328-1.785l-4.996-7.508a4 4 0 0 1 .504-5.043z"/><path fill-rule="evenodd" d="M518 628c-8.837 0-16 7.163-16 16v56c0 8.837 7.163 16 16 16h56c8.837 0 16-7.163 16-16v-56c0-8.837-7.163-16-16-16zm39.714 25.486a4 4 0 0 0-7.428-2.972l-16 40a4 4 0 0 0 7.428 2.972z" clip-rule="evenodd"/><path d="M668.852 624.17a4 4 0 0 1 4.98 2.682l24 80c.209.698.724 1.331 1.438 1.478 4.67.957 8.431 3.92 9.974 7.768.822 2.05-1.034 3.903-3.243 3.903h-20c-2.209 0-4.065-1.853-3.243-3.903.825-2.058 2.285-3.862 4.179-5.243 1.679-1.224 2.757-3.29 2.159-5.281L666.17 629.15a4 4 0 0 1 2.682-4.98M700.463 624.01c-9.94.208-14.894 5.925-17.399 8.817-.638.735-.887 1.759-.605 2.691l8.979 29.766c.4 1.327 1.944 1.798 2.964.861 2.853-2.62 6.958-6.391 12.214-6.391 5.833 0 10.481 1.718 14.834 3.326 3.301 1.22 6.433 2.377 9.782 2.674 10.516.932 19.535-4.109 27.056-15.577 1.745-2.662-.511-5.999-3.695-5.973-13.546.113-20.731-4.136-25.413-8.203l-.2-.196c-3.558-3.475-12.418-12.13-28.517-11.795M874 668h-8v8h8zM866 680h8v8h-8zM854 692v8h8v-8zM886 692h-8v8h8zM890 692h8v8h-8zM874 692h-8v8h8zM854 680v8h8v-8zM890 680h8v8h-8zM910 688v-8h-8v8zM878 680h8v8h-8zM890 668h8v8h-8zM910 676v-8h-8v8zM878 668h8v8h-8z"/><path fill-rule="evenodd" d="M858 632a4 4 0 0 1 8 0v4h32v-4a4 4 0 0 1 8 0v4h8c6.627 0 12 5.373 12 12v56c0 6.627-5.373 12-12 12h-64c-6.627 0-12-5.373-12-12v-56c0-6.627 5.373-12 12-12h8zm-12 32a4 4 0 0 1 4-4h64a4 4 0 0 1 4 4v40a4 4 0 0 1-4 4h-64a4 4 0 0 1-4-4z" clip-rule="evenodd"/></svg>