<svg class="design--desktop" xmlns="http://www.w3.org/2000/svg" width="1257" height="682" fill="none" viewBox="0 0 1257 682"><path fill="#556577" d="M0 0h1257v682H0z" style="fill:#556577;fill:color(display-p3 .3333 .3961 .4667);fill-opacity:1"/><path fill="#fff" fill-rule="evenodd" d="M412.5 158c18.225 0 33-14.775 33-33s-14.775-33-33-33-33 14.775-33 33 14.775 33 33 33m12.964-24.022c2.604-.117 4.856 2.438 3.189 4.442-3.852 4.632-9.658 7.58-16.153 7.58-11.598 0-21-9.402-21-21 0-6.495 2.948-12.301 7.58-16.153 2.004-1.667 4.559.585 4.442 3.189q-.022.48-.022.964c0 11.598 9.402 21 21 21q.484 0 .964-.022M556.5 158c18.225 0 33-14.775 33-33s-14.775-33-33-33-33 14.775-33 33 14.775 33 33 33m14.56-43.436a3 3 0 1 0-5.12-3.128l-14.371 23.516-7.811-8.928a3.002 3.002 0 0 0-4.516 3.952l10.5 12a3.002 3.002 0 0 0 4.818-.412zM700.5 158c18.225 0 33-14.775 33-33s-14.775-33-33-33-33 14.775-33 33 14.775 33 33 33m-12-36a3 3 0 1 0 0 6h24a3 3 0 1 0 0-6zM844.5 158c18.225 0 33-14.775 33-33s-14.775-33-33-33-33 14.775-33 33 14.775 33 33 33m0-48a3 3 0 0 0-3 3v24a3 3 0 1 0 6 0v-24a3 3 0 0 0-3-3M412.5 293c13.255 0 24-10.745 24-24s-10.745-24-24-24-24 10.745-24 24 10.745 24 24 24m0 9c18.225 0 33-14.775 33-33s-14.775-33-33-33-33 14.775-33 33 14.775 33 33 33" clip-rule="evenodd" style="fill:#fff;fill-opacity:1"/><path fill="#fff" d="M589.5 269c0 3.219-3.821 4.639-6.909 3.73a18 18 0 0 0-5.091-.73c-9.941 0-18 8.059-18 18 0 1.768.255 3.477.73 5.091.909 3.088-.511 6.909-3.73 6.909-18.225 0-33-14.775-33-33s14.775-33 33-33 33 14.775 33 33" style="fill:#fff;fill-opacity:1"/><path fill="#fff" d="M577.5 302c6.627 0 12-5.373 12-12s-5.373-12-12-12-12 5.373-12 12 5.373 12 12 12" style="fill:#fff;fill-opacity:1"/><path fill="#fff" fill-rule="evenodd" d="M709.5 236a3 3 0 0 1 3 3v36.929c0 1.871 2.263 2.808 3.586 1.485l6.656-6.656a6 6 0 0 0 1.758-4.242v-6.797c0-1.561 1.439-2.719 3-2.719q.803 0 1.585-.082c2.151-.227 4.415 1.253 4.415 3.416V290c0 6.627-5.373 12-12 12h-42c-6.627 0-12-5.373-12-12v-42c0-6.627 5.373-12 12-12zm-21 26.071c0-1.871-2.263-2.808-3.586-1.485l-6.656 6.656a6 6 0 0 0-1.758 4.242V287a6 6 0 0 0 6 6H699a1.5 1.5 0 0 0 1.5-1.5v-9a1.5 1.5 0 0 0-1.5-1.5h-9a1.5 1.5 0 0 1-1.5-1.5zM714.984 281a6 6 0 0 0-4.242 1.758l-6.656 6.656c-1.323 1.323-.386 3.586 1.485 3.586H718.5a6 6 0 0 0 6-6v-4.5a1.5 1.5 0 0 0-1.5-1.5zM682.5 245a6 6 0 0 0-6 6v4.5a1.5 1.5 0 0 0 1.5 1.5h29.429c1.871 0 2.808-2.263 1.485-3.586l-6.656-6.656a6 6 0 0 0-4.242-1.758z" clip-rule="evenodd" style="fill:#fff;fill-opacity:1"/><path fill="#fff" d="M727.5 233a9 9 0 0 1 9 9 9 9 0 0 1-9 9 9 9 0 0 1-9-9 9 9 0 0 1 9-9" style="fill:#fff;fill-opacity:1"/><path fill="#fff" fill-rule="evenodd" d="M844.5 302c18.225 0 33-14.775 33-33s-14.775-33-33-33-33 14.775-33 33 14.775 33 33 33m14.287-10.086c4.792-2.994 5.062-10.021-.071-12.383A16.7 16.7 0 0 0 851.7 278h-14.4c-2.504 0-4.881.548-7.016 1.531-5.133 2.362-4.863 9.389-.071 12.383A26.87 26.87 0 0 0 844.5 296a26.86 26.86 0 0 0 14.287-4.086M844.5 272c6.628 0 12-5.373 12-12s-5.372-12-12-12c-6.627 0-12 5.373-12 12s5.373 12 12 12M391.71 393.16c-.984-.135-1.98.219-2.605.991a29.9 29.9 0 0 0-4.95 8.818c-.32.901-.131 1.896.446 2.658l4.778 6.308a3 3 0 0 1 0 3.623l-4.4 5.809c-.601.793-.78 1.837-.41 2.762a30 30 0 0 0 5.805 9.187c.63.684 1.565.985 2.486.859l6.463-.888a3 3 0 0 1 3.19 1.851l2.248 5.579c.362.897 1.131 1.575 2.082 1.755 1.828.347 3.714.528 5.643.528 1.964 0 3.884-.188 5.743-.547.946-.183 1.712-.859 2.072-1.753l2.241-5.562a3 3 0 0 1 3.191-1.851l6.389.878c.922.126 1.857-.176 2.487-.86a30 30 0 0 0 5.826-9.255c.366-.923.187-1.963-.412-2.754l-4.347-5.738a3 3 0 0 1 0-3.623l4.722-6.234c.576-.76.765-1.751.449-2.65a30 30 0 0 0-4.97-8.888c-.625-.773-1.621-1.128-2.606-.993l-7.538 1.035a3 3 0 0 1-3.191-1.851l-2.889-7.17c-.369-.916-1.164-1.602-2.139-1.766a30.3 30.3 0 0 0-5.028-.418 30 30 0 0 0-4.93.402c-.978.161-1.777.848-2.148 1.768l-2.895 7.184a3 3 0 0 1-3.19 1.851zM412.5 425c6.627 0 12-5.373 12-12s-5.373-12-12-12-12 5.373-12 12 5.373 12 12 12M577.5 377c6.627 0 12 5.373 12 12v30c0 6.627-5.373 12-12 12h-10.758a3 3 0 0 0-2.121.879l-12 12c-1.89 1.889-5.121.551-5.121-2.121V434a3 3 0 0 0-3-3h-9c-6.627 0-12-5.373-12-12v-30c0-6.627 5.373-12 12-12zm-21 40.5a4.501 4.501 0 0 0 0 9 4.501 4.501 0 0 0 0-9m4.011-34.192c-5.239-.824-11.606.588-15.202 4.432a3 3 0 0 0 4.382 4.099c1.858-1.984 5.991-3.218 9.888-2.605 1.866.294 3.37.975 4.362 1.899.925.86 1.559 2.064 1.559 3.867 0 1.984-.537 2.899-1.058 3.454-.651.693-1.604 1.19-3.134 1.86-1.316.577-3.352 1.386-4.916 2.79-1.796 1.611-2.868 3.849-2.869 6.896a3 3 0 0 0 3 3 3 3 0 0 0 3-3c.001-1.451.427-2.028.876-2.432.681-.61 1.64-1.023 3.317-1.757 1.462-.642 3.506-1.553 5.1-3.249 1.724-1.836 2.684-4.299 2.684-7.562 0-3.446-1.311-6.248-3.472-8.259-2.092-1.948-4.815-3.008-7.517-3.433" clip-rule="evenodd" style="fill:#fff;fill-opacity:1"/><path fill="#fff" d="M684 419a4.5 4.5 0 1 0 0-9 4.5 4.5 0 0 0 0 9" style="fill:#fff;fill-opacity:1"/><path fill="#fff" fill-rule="evenodd" d="M664.5 389c0-6.627 5.373-12 12-12h18c6.627 0 12 5.373 12 12v48a6 6 0 0 1-6 6h-3c-.01 3.842-3.581 6.686-7.33 5.834l-21-4.773a6 6 0 0 1-4.67-5.85zm22.073-3.388-9-1.637c-3.683-.669-7.073 2.16-7.073 5.904v48.332l21 4.772v-51.468a6 6 0 0 0-4.927-5.903" clip-rule="evenodd" style="fill:#fff;fill-opacity:1"/><path fill="#fff" d="M723.621 398.879a3 3 0 0 0-4.242 0 3 3 0 0 0 0 4.242l6.878 6.879H712.5a3 3 0 1 0 0 6h13.757l-6.878 6.879a3 3 0 0 0 0 4.242 3 3 0 0 0 4.242 0l12-12a3 3 0 0 0 0-4.242z" style="fill:#fff;fill-opacity:1"/><path fill="#fff" fill-rule="evenodd" d="M865.5 380c6.627 0 12 5.373 12 12v42c0 6.627-5.373 12-12 12h-42c-6.627 0-12-5.373-12-12v-42c0-6.627 5.373-12 12-12zM828 426.863c-.486 0-.96.059-1.412.167l-1.793 3.079a2.96 2.96 0 0 0 1.099 4.061c1.434.82 3.27.335 4.098-1.087l2.473-4.245a6 6 0 0 0-4.465-1.975m21.334-22.286c-2.41 2.793-2.914 6.896-.955 10.26l10.629 18.246a3.016 3.016 0 0 0 4.098 1.09 2.96 2.96 0 0 0 1.099-4.064l-2.974-5.103 4.269-.003c1.657 0 3-1.332 3-2.974-.001-1.641-1.344-2.973-3-2.973h-7.731zm.56-11.607c-1.435-.821-3.271-.335-4.099 1.087l-1.295 2.223-1.295-2.223c-.828-1.422-2.664-1.908-4.099-1.087a2.96 2.96 0 0 0-1.098 4.06l3.026 5.198-9.803 16.828H823.5c-1.656 0-2.999 1.332-3 2.973 0 1.642 1.343 2.977 3 2.977l26.244-.003c.166-.465.261-.964.261-1.485 0-2.464-2.015-4.462-4.5-4.462h-7.345l12.832-22.026a2.96 2.96 0 0 0-1.098-4.06M424.59 554.549c.78-.905 2.24-1.22 3.085-.375l2.025 2.025c.919.92.785 2.487.785 3.788a3.003 3.003 0 0 0 3 3c1.301 0 2.868-.134 3.788.785l9.12 9.123a7.2 7.2 0 0 1 0 10.184l-4.816 4.816a7.204 7.204 0 0 1-10.184 0l-9.12-9.123c-.919-.92-.788-2.484-.788-3.785a3 3 0 0 0-3-3c-1.301 0-2.865.131-3.785-.788l-.443-.44a2.98 2.98 0 0 1-.149-4.054zm5.455 20.877a1.5 1.5 0 0 0-2.121 2.121l6 6a1.5 1.5 0 1 0 2.121-2.121zm6-6a1.5 1.5 0 0 0-2.121 2.121l6 6a1.5 1.5 0 1 0 2.121-2.121z" clip-rule="evenodd" style="fill:#fff;fill-opacity:1"/><path fill="#fff" d="M414.89 545.318a3.003 3.003 0 0 1 4.081.152l2.06 2.06a3 3 0 0 1 .149 4.081l-31.166 36.152a6.42 6.42 0 0 1-9.401.349l-2.224-2.224a6.42 6.42 0 0 1 .346-9.401zM405.254 526.864c6.154-5.337 15.569-9.539 23.746-1.363l8.097 8.098a6 6 0 0 1 1.579 5.695l-.676 2.707 1.5 1.5h5.378c.398 0 .78.159 1.061.44l1.564 1.561a3.003 3.003 0 0 1 0 4.246l-6.257 6.254a3 3 0 0 1-4.243 0l-1.564-1.561a1.5 1.5 0 0 1-.439-1.064v-5.376l-1.5-1.5-4.351 1.087a3 3 0 0 1-2.851-.788l-6.486-6.489a3 3 0 0 1-.727-3.07l1.829-5.482c.359-1.078.106-2.32-.876-2.891-3.918-2.281-8.969.059-11.942 1.713a2.42 2.42 0 0 1-2.897-.383c-.938-.938-.946-2.466.055-3.334M383.748 522.724a3 3 0 0 1 3.785-.375l5.628 3.747a3 3 0 0 1 1.339 2.499v2.983c0 .899.405 1.753 1.101 2.323l10.392 8.499a3 3 0 0 1 .058 4.594l-.928.799a3 3 0 0 1-4.281-.372l-8.44-10.321a3 3 0 0 0-2.323-1.099h-2.989a3 3 0 0 1-2.496-1.338l-3.747-5.631a3 3 0 0 1 .378-3.783z" style="fill:#fff;fill-opacity:1"/><path fill="#fff" fill-rule="evenodd" d="M535.5 524c-6.627 0-12 5.373-12 12v42c0 6.627 5.373 12 12 12h42c6.627 0 12-5.373 12-12v-42c0-6.627-5.373-12-12-12zm29.785 19.114a3 3 0 0 0-1.671-3.899 3 3 0 0 0-3.899 1.671l-12 30a3 3 0 0 0 1.671 3.899 3 3 0 0 0 3.899-1.671z" clip-rule="evenodd" style="fill:#fff;fill-opacity:1"/><path fill="#fff" d="M666.639 521.127a3 3 0 0 1 3.735 2.012l18 60c.157.524.543.999 1.079 1.108 3.502.719 6.322 2.941 7.48 5.826.617 1.538-.775 2.928-2.432 2.928h-15c-1.657 0-3.049-1.39-2.432-2.928.619-1.543 1.713-2.896 3.133-3.931 1.26-.919 2.068-2.468 1.62-3.961l-17.195-57.318a3 3 0 0 1 2.012-3.736M690.347 521.008c-7.455.155-11.17 4.443-13.049 6.612-.478.552-.665 1.319-.454 2.018l6.734 22.325c.301.995 1.458 1.349 2.224.646 2.139-1.965 5.218-4.794 9.16-4.794 4.374 0 7.861 1.289 11.125 2.495 2.476.915 4.825 1.783 7.337 2.005 7.887.7 14.651-3.081 20.292-11.682 1.309-1.997-.384-4.5-2.771-4.48-10.16.085-15.549-3.102-19.06-6.152l-.15-.147c-2.668-2.607-9.314-9.098-21.388-8.846M838.5 554h-6v6h6zM832.5 563h6v6h-6zM823.5 572v6h6v-6zM847.5 572h-6v6h6zM850.5 572h6v6h-6zM838.5 572h-6v6h6zM823.5 563v6h6v-6zM850.5 563h6v6h-6zM865.5 569v-6h-6v6zM841.5 563h6v6h-6zM850.5 554h6v6h-6zM865.5 560v-6h-6v6zM841.5 554h6v6h-6z" style="fill:#fff;fill-opacity:1"/><path fill="#fff" fill-rule="evenodd" d="M826.5 527a3 3 0 1 1 6 0v3h24v-3a3 3 0 1 1 6 0v3h6a9 9 0 0 1 9 9v42a9 9 0 0 1-9 9h-48a9 9 0 0 1-9-9v-42a9 9 0 0 1 9-9h6zm-9 24a3 3 0 0 1 3-3h48a3 3 0 0 1 3 3v30a3 3 0 0 1-3 3h-48a3 3 0 0 1-3-3z" clip-rule="evenodd" style="fill:#fff;fill-opacity:1"/></svg>